<svg xmlns="http://www.w3.org/2000/svg" version="1.1" xmlns:xlink="http://www.w3.org/1999/xlink" xmlns:svgjs="http://svgjs.dev/svgjs" width="1440" height="560" preserveAspectRatio="none" viewBox="0 0 1440 560"><g mask="url(&quot;#SvgjsMask1077&quot;)" fill="none"><rect width="1440" height="560" x="0" y="0" fill="rgba(115, 215, 38, 1)"></rect><path d="M 0,213 C 57.6,195.2 172.8,119.6 288,124 C 403.2,128.4 460.8,249.8 576,235 C 691.2,220.2 748.8,48.8 864,50 C 979.2,51.2 1036.8,238 1152,241 C 1267.2,244 1382.4,100.2 1440,65L1440 560L0 560z" fill="rgba(242, 2, 107, 1)"></path><path d="M 0,470 C 72,439.8 216,322 360,319 C 504,316 576,437.8 720,455 C 864,472.2 936,405.6 1080,405 C 1224,404.4 1368,442.6 1440,452L1440 560L0 560z" fill="rgba(187, 25, 216, 1)"></path></g><defs><mask id="SvgjsMask1077"><rect width="1440" height="560" fill="#ffffff"></rect></mask></defs></svg>